<svg version="1.0" x="0px" y="0px" width="196px" height="195.3px" style="enable-background:new 0 0 196 195.3;" xml:space="preserve" class="sprite--ls-animated injected-svg" viewBox="0 0 196 195.3" xmlns="http://www.w3.org/2000/svg" xmlns:xlink="http://www.w3.org/1999/xlink" role="img" id="LsAnimated" aria-label="Learn Spring" data-src="/wp-content/uploads/aqua-svg-sprite/aqua-svg-general-sprite.svg#ls-animated">
<g role="presentation">
	<g transform="matrix( 1, 0, 0, 1, 0,-2) ">
		<g>
			
				<path style="fill: none; stroke: rgb(244, 244, 244); stroke-linecap: round; stroke-linejoin: round; stroke-dasharray: 337, 339; stroke-dashoffset: 0;" d="     M135,113v20.5h11.6l-2.3,6.6H38.6l-2.2-6.6H48V76.8h24.4 M48,133.5h31.7v2.7h23.6v-2.7H135"></path>
		</g>
		<g>
			
				<path style="fill: none; stroke: rgb(244, 244, 244); stroke-linecap: round; stroke-linejoin: round; stroke-dasharray: 156, 158; stroke-dashoffset: 0;" d="     M129.6,113v10v5H53.5v-5V88.4v-6.1h18.9"></path>
		</g>
	</g>
	<g transform="matrix( 1, 0, 0, 1, 0,-2) ">
		<g>
			<path style="fill: none; stroke: rgb(99, 177, 117); stroke-linecap: round; stroke-linejoin: round; stroke-dasharray: 469, 471; stroke-dashoffset: 0;" d="     M158.8,62.4h3.2v43.5h-29h-5.1l-0.8,1.7c-2.3,0.4-4.7,0.6-7.2,0.6s-4.6-0.2-6.3-0.6l-0.6-1.7h-7.2H78.6V62.4h3.1v-1.7v-2.9     c3.9-0.2,11-1.3,21.1-3.4c8.9-1.1,14.7,0.2,17.4,4c2.7-3.8,8.6-5.2,17.5-4c2,0.2,5.6,0.9,11.1,1.9c4.6,0.9,7.9,1.4,10,1.5v2.9     V62.4v38.4c-2.1-0.1-5.4-0.6-10-1.4c-5.4-1.1-9.1-1.7-11.1-2c-8.9-1.1-14.7,0.3-17.5,4.1c-2.7-3.8-8.5-5.2-17.4-4.1     c-10.2,2.1-17.2,3.2-21.1,3.4V62.4 M120.2,58.4v35.1v8"></path>
		</g>
	</g>
</g>
<path style="fill: rgb(255, 255, 255); stroke-dasharray: 188, 190; stroke-dashoffset: 0;" d="M107.4,78.6c3.2-5.9,2.8-14.8,2.8-15.2v-0.7l-0.7,0.2c-0.4,0.1-9.1,2-14,6.6  c-2.7,2.5-3.3,5.2-3.2,6.9c0,2.4,1.2,4.4,2.3,5.6l-1.9,2.5l1,0.7l1.9-2.5c1.4,0.8,3.6,1.4,6,0.8C103.2,83,105.6,81.9,107.4,78.6z   M101.2,82.3c-1.9,0.5-3.7,0-5-0.6l1.9-2.4l5-0.6l-0.2-1.2L99.1,78l2.2-2.9l5-0.6l-0.2-1.2l-3.8,0.5L106,69l-1-0.7l-3.6,4.6  l-0.5-3.8l-1.2,0.2l0.6,5l-2.2,2.9l-0.5-3.8l-1.2,0.2l0.6,5L95.1,81c-0.9-1-1.8-2.7-1.8-4.7c0-2.2,0.9-4.2,2.8-6  c3.9-3.6,10.5-5.6,12.7-6.1c0,2.3-0.2,9.2-2.7,13.8C105.1,80.3,103.3,81.8,101.2,82.3z" role="presentation"></path>
<g style="display:none;" role="presentation">
	<path style="display: inline; fill: rgb(237, 151, 36); stroke-dasharray: 101, 103; stroke-dashoffset: 0;" d="M46.6,55.1l-5.1-15.9l4.2-1.4l5.2,4.8c1.5,1.4,3.1,3,4.4,4.6h0.1   c-0.9-2-1.7-4.1-2.5-6.5L51.3,36l3.3-1.1l5.1,15.9L56,52.1l-5.4-5c-1.5-1.4-3.2-3.1-4.6-4.7h-0.1c0.8,2.1,1.5,4.3,2.4,6.9l1.5,4.8   L46.6,55.1z"></path>
	<path style="display: inline; fill: rgb(237, 151, 36); stroke-dasharray: 81, 83; stroke-dashoffset: 0;" d="M70.2,40.1L64.3,42l1.2,3.8l6.5-2.1l1,2.9l-10.1,3.3L57.8,34l9.8-3.2l1,2.9l-6.2,2   l1.1,3.3l5.8-1.9L70.2,40.1z"></path>
	<path style="display: inline; fill: rgb(237, 151, 36); stroke-dasharray: 131, 133; stroke-dashoffset: 0;" d="M78.2,44.9l-8.9-14.7l3.8-1.2l3.3,6.2c1,1.8,2,3.7,2.7,5.2l0,0   c-0.3-1.8-0.5-3.8-0.8-5.9l-0.8-6.9l3.8-1.2l3.4,6.3c1,1.7,1.8,3.4,2.6,5.1l0,0C87,36,86.7,34,86.4,32l-0.8-6.9l3.7-1.2l1,17.2   l-3.9,1.3L82.8,36c-0.8-1.5-1.6-2.9-2.3-4.7l0,0c0.3,1.9,0.5,3.5,0.7,5.2l0.7,7.3L78.2,44.9z"></path>
	<path style="display: inline; fill: rgb(237, 151, 36); stroke-dasharray: 44, 46; stroke-dashoffset: 0;" d="M95.2,33.6l-4-10.5l3.7-1.2l2.9,10.8L95.2,33.6z M95.5,37.2   c-0.4-1.2,0.2-2.4,1.4-2.8c1.2-0.4,2.4,0.2,2.8,1.5c0.4,1.2-0.1,2.4-1.4,2.8S95.9,38.5,95.5,37.2z"></path>
</g>
<path style="fill: rgb(255, 255, 255); stroke-dasharray: 752, 754; stroke-dashoffset: 0;" d="M97.7,194.4h-0.4v-2.9h0.4c3.7,0,7.3-0.2,10.9-0.6l0.3,2.9C105.3,194.2,101.5,194.4,97.7,194.4z   M85.6,193.6c-3.9-0.5-7.7-1.2-11.5-2.2l0.7-2.8c3.7,0.9,7.4,1.6,11.2,2.1L85.6,193.6z M120.6,191.7l-0.7-2.8  c3.7-0.9,7.3-2,10.9-3.3l1,2.7C128.1,189.6,124.4,190.8,120.6,191.7L120.6,191.7z M62.9,187.9c-3.7-1.4-7.2-3-10.7-4.9l1.4-2.5  c3.3,1.8,6.8,3.4,10.3,4.7L62.9,187.9z M142.5,183.5l-1.3-2.6c3.4-1.8,6.6-3.7,9.7-5.9l1.6,2.4C149.3,179.6,145.9,181.7,142.5,183.5  L142.5,183.5z M42.2,176.9c-3.2-2.2-6.3-4.7-9.2-7.3l1.9-2.2c2.8,2.5,5.8,4.9,8.9,7.1L42.2,176.9z M161.8,170.2l-1.9-2.2  c2.8-2.5,5.5-5.2,8.1-8l2.2,1.9C167.5,164.9,164.7,167.6,161.8,170.2L161.8,170.2z M24.8,161.3c-2.6-2.9-5-6-7.2-9.3l2.4-1.6  c2.1,3.1,4.5,6.1,7,9L24.8,161.3z M177.3,152.7l-2.4-1.6c2.2-3.1,4.1-6.4,5.9-9.7l2.6,1.3C181.6,146.2,179.6,149.5,177.3,152.7z   M11.7,141.9c-1.8-3.5-3.4-7.1-4.7-10.7l2.7-1c1.3,3.6,2.9,7,4.6,10.4L11.7,141.9z M188.3,132l-2.7-1c1.4-3.5,2.5-7.2,3.4-10.9  l2.8,0.7C190.8,124.6,189.6,128.4,188.3,132L188.3,132z M3.5,120c-0.9-3.8-1.6-7.7-2-11.6l2.9-0.3c0.4,3.8,1.1,7.5,1.9,11.2L3.5,120  z M193.9,109.3L191,109c0.5-3.8,0.7-7.6,0.7-11.4h2.9C194.6,101.5,194.3,105.4,193.9,109.3L193.9,109.3z M3.8,96.8H0.9  c0-3.9,0.3-7.8,0.8-11.7l2.9,0.4C4.1,89.2,3.9,93,3.8,96.8z M191.2,87.9c-0.4-3.8-1-7.5-1.8-11.2l2.8-0.6c0.9,3.8,1.5,7.7,1.9,11.6  L191.2,87.9z M6.7,74.2L4,73.5c1-3.8,2.2-7.5,3.6-11.2l2.7,1.1C8.9,66.9,7.7,70.6,6.7,74.2z M186.1,65.7c-1.3-3.6-2.8-7.1-4.5-10.4  l2.6-1.3c1.8,3.5,3.3,7.1,4.6,10.8L186.1,65.7z M15,53.1l-2.5-1.4c1.9-3.4,3.9-6.8,6.2-10l2.4,1.7C18.8,46.5,16.8,49.7,15,53.1  L15,53.1z M175.9,45.5c-2.1-3.2-4.4-6.2-6.9-9.1l2.2-1.9c2.5,3,4.9,6.1,7.1,9.3L175.9,45.5z M28.1,34.5L26,32.6  c2.6-2.9,5.4-5.6,8.4-8.2l1.9,2.2C33.4,29.1,30.7,31.7,28.1,34.5z M161.1,28.3c-2.8-2.6-5.8-4.9-8.8-7.2l1.7-2.4  c3.2,2.3,6.2,4.7,9.1,7.4L161.1,28.3z M45.3,19.7l-1.6-2.4c3.2-2.2,6.6-4.2,10.1-6l1.3,2.6C51.7,15.6,48.4,17.5,45.3,19.7z   M142.6,15.1c-3.3-1.8-6.8-3.4-10.3-4.8l1.1-2.7c3.6,1.4,7.2,3.1,10.6,5L142.6,15.1z M65.5,9.3l-1-2.7c3.7-1.3,7.4-2.5,11.2-3.3  l0.7,2.8C72.7,7,69.1,8,65.5,9.3z M121.5,6.7c-3.7-1-7.4-1.7-11.2-2.2l0.4-2.9c3.9,0.5,7.7,1.3,11.5,2.3L121.5,6.7z M87.6,4.2  l-0.3-2.9c3.9-0.4,7.8-0.6,11.7-0.6v2.9C95.2,3.6,91.4,3.8,87.6,4.2z" role="presentation"></path>
</svg>